name GIL11_static.mot
datacolumns 141
datarows 4
range 1.29166663 1.31666672
endheader

                time	           pelvis_tx	           pelvis_ty	           pelvis_tz	         pelvis_tilt	         pelvis_list	     pelvis_rotation	       hip_flexion_r	     hip_adduction_r	      hip_rotation_r	        knee_angle_r	       ankle_angle_r	    subtalar_angle_r	         mtp_angle_r	       hip_flexion_l	     hip_adduction_l	      hip_rotation_l	        knee_angle_l	       ankle_angle_l	    subtalar_angle_l	         mtp_angle_l	    lumbar_extension	      lumbar_bending	     lumbar_rotation	    ground_marker_px	    ground_marker_py	    ground_marker_pz	    ground_marker_px	    ground_marker_py	    ground_marker_pz	    ground_marker_px	    ground_marker_py	    ground_marker_pz	    ground_marker_px	    ground_marker_py	    ground_marker_pz	    ground_marker_px	    ground_marker_py	    ground_marker_pz	    ground_marker_px	    ground_marker_py	    ground_marker_pz	    ground_marker_px	    ground_marker_py	    ground_marker_pz	    ground_marker_px	    ground_marker_py	    ground_marker_pz	    ground_marker_px	    ground_marker_py	    ground_marker_pz	    ground_marker_px	    ground_marker_py	    ground_marker_pz	    ground_marker_px	    ground_marker_py	    ground_marker_pz	    ground_marker_px	    ground_marker_py	    ground_marker_pz	    ground_marker_px	    ground_marker_py	    ground_marker_pz	    ground_marker_px	    ground_marker_py	    ground_marker_pz	    ground_marker_px	    ground_marker_py	    ground_marker_pz	    ground_marker_px	    ground_marker_py	    ground_marker_pz	    ground_marker_px	    ground_marker_py	    ground_marker_pz	    ground_marker_px	    ground_marker_py	    ground_marker_pz	    ground_marker_px	    ground_marker_py	    ground_marker_pz	    ground_marker_px	    ground_marker_py	    ground_marker_pz	    ground_marker_px	    ground_marker_py	    ground_marker_pz	    ground_marker_px	    ground_marker_py	    ground_marker_pz	    ground_marker_px	    ground_marker_py	    ground_marker_pz	    ground_marker_px	    ground_marker_py	    ground_marker_pz	    ground_marker_px	    ground_marker_py	    ground_marker_pz	    ground_marker_px	    ground_marker_py	    ground_marker_pz	    ground_marker_px	    ground_marker_py	    ground_marker_pz	    ground_marker_px	    ground_marker_py	    ground_marker_pz	    ground_marker_px	    ground_marker_py	    ground_marker_pz	    ground_marker_px	    ground_marker_py	    ground_marker_pz	    ground_marker_px	    ground_marker_py	    ground_marker_pz	    ground_marker_px	    ground_marker_py	    ground_marker_pz	    ground_marker_px	    ground_marker_py	    ground_marker_pz	    ground_marker_px	    ground_marker_py	    ground_marker_pz	    ground_marker_px	    ground_marker_py	    ground_marker_pz	    ground_marker_px	    ground_marker_py	    ground_marker_pz	    ground_marker_px	    ground_marker_py	    ground_marker_pz	    ground_marker_px	    ground_marker_py	    ground_marker_pz	    ground_marker_px	    ground_marker_py	    ground_marker_pz	
          1.29166663	          1.51190376	          0.88180697	         -0.27008671	         -7.23572731	          1.41219044	          1.31809235	          8.65209198	         -7.07197475	          0.45389909	         -3.51548624	          1.27323461	          0.00000000	          0.00000000	          9.30686760	         -4.44303179	          5.39808702	         -6.21669149	          1.42663014	          0.00000000	          0.00000000	          5.87411880	         -4.28425741	          2.71407700	          1.42543149	          0.82177794	         -0.26421770	          1.41942322	          0.81011730	         -0.19497444	          1.41235673	          0.81491268	         -0.34686214	          1.42927563	          0.43686903	         -0.16043516	          1.42569387	          0.43686241	         -0.38820609	          1.41616273	          0.06471822	         -0.12555468	          1.39783370	          0.06750696	         -0.42283350	          1.51190376	          0.88180697	         -0.27008671	          1.51349902	          0.87818956	         -0.15286253	          1.51030838	          0.88542438	         -0.38731089	          1.31976342	          0.95064265	         -0.23291884	          1.31741977	          0.94736785	         -0.28769889	          1.43037748	          0.44242555	         -0.10070316	          1.43035662	          0.44352797	         -0.44765210	          1.43211102	          0.43329889	         -0.21675876	          1.42958796	          0.44257089	         -0.32353365	          1.39583683	          0.06885733	         -0.08903446	          1.38305771	          0.07228005	         -0.46185768	          1.42882669	          0.06874207	         -0.15678705	          1.40196872	          0.07606140	         -0.39402735	          1.37599468	          0.03354199	         -0.15725291	          1.34742069	          0.04716245	         -0.41206741	          1.50066018	          1.32226908	         -0.27069655	          1.54485226	          1.25553501	         -0.27440158	          1.37851012	          1.37950623	         -0.26109743	          1.50720215	          1.32799685	         -0.21912320	          1.50066531	          1.32346213	         -0.32404995	          1.50843668	          0.04087891	         -0.06721459	          1.50092304	          0.04384008	         -0.45743400	          1.58649993	          0.57630515	         -0.18181936	          1.46148348	          0.58266824	         -0.51935726	          1.51726604	          0.63169271	         -0.13479488	          1.40081286	          0.62734836	         -0.45628792	          1.50561821	          0.54470032	         -0.12623549	          1.40891647	          0.54033250	         -0.45126525	          1.38281548	          0.15157305	         -0.02829603	          1.49361479	          0.18810920	         -0.40584862	          1.38996792	          0.15759932	         -0.07151404	          1.45210361	          0.18772924	         -0.41398692	
          1.29999995	          1.51178551	          0.88172114	         -0.27009827	         -7.25531197	          1.36679924	          1.30924773	          8.69099808	         -7.01931190	          0.44774076	         -3.52846456	          1.28026819	          0.00000000	          0.00000000	          9.34294701	         -4.50162268	          5.41495657	         -6.23133278	          1.27077675	          0.00000000	          0.00000000	          5.89530563	         -4.24521112	          2.58076143	          1.42537045	          0.82186818	         -0.26461852	          1.41928887	          0.81012350	         -0.19491810	          1.41220653	          0.81479990	         -0.34680879	          1.42926466	          0.43689901	         -0.16043052	          1.42563522	          0.43691206	         -0.38822570	          1.41619396	          0.06480922	         -0.12553956	          1.39775407	          0.06745482	         -0.42279059	          1.51178551	          0.88172114	         -0.27009827	          1.51339281	          0.87819743	         -0.15289138	          1.51017809	          0.88524485	         -0.38730514	          1.31969440	          0.95063508	         -0.23290043	          1.31719637	          0.94738841	         -0.28775933	          1.43036532	          0.44244799	         -0.10069782	          1.43030584	          0.44359311	         -0.44766939	          1.43197906	          0.43330744	         -0.21673195	          1.43009841	          0.44189888	         -0.32388327	          1.39586723	          0.06894772	         -0.08901976	          1.38298273	          0.07222074	         -0.46181747	          1.42892325	          0.06868647	         -0.15675178	          1.40226567	          0.07594351	         -0.39400285	          1.37601459	          0.03354012	         -0.15729572	          1.34671795	          0.04760839	         -0.41195816	          1.50051868	          1.32216382	         -0.27072126	          1.54472673	          1.25543439	         -0.27431777	          1.37833071	          1.37941098	         -0.26113150	          1.50693846	          1.32789540	         -0.21924080	          1.50064909	          1.32335365	         -0.32396814	          1.50842667	          0.04091927	         -0.06722087	          1.50092483	          0.04380688	         -0.45743191	          1.58651161	          0.57634801	         -0.18183042	          1.46139848	          0.58268744	         -0.51944482	          1.51729226	          0.63171411	         -0.13483168	          1.40082288	          0.62703943	         -0.45592853	          1.50555193	          0.54462796	         -0.12622929	          1.40897298	          0.54013652	         -0.45122728	          1.38276792	          0.15159155	         -0.02828699	          1.49363363	          0.18808915	         -0.40585032	          1.38998294	          0.15760976	         -0.07165117	          1.45197284	          0.18800956	         -0.41369584	
          1.30833328	          1.51165056	          0.88161004	         -0.27013212	         -7.28428841	          1.29252529	          1.31090534	          8.73604774	         -6.94033146	          0.43033883	         -3.54248881	          1.30227494	          0.00000000	          0.00000000	          9.39825249	         -4.58829832	          5.44867182	         -6.25357246	          1.10069680	          0.00000000	          0.00000000	          5.95174170	         -4.25200081	          2.50306678	          1.42513299	          0.82182777	         -0.26494646	          1.41915214	          0.81015044	         -0.19482303	          1.41200292	          0.81464612	         -0.34671605	          1.42924154	          0.43693516	         -0.16040650	          1.42557180	          0.43695113	         -0.38823783	          1.41619694	          0.06491516	         -0.12553416	          1.39767110	          0.06741224	         -0.42278630	          1.51165056	          0.88161004	         -0.27013212	          1.51330936	          0.87822825	         -0.15293644	          1.50999177	          0.88499188	         -0.38732782	          1.31960928	          0.95064098	         -0.23287727	          1.31697297	          0.94741881	         -0.28779495	          1.43035054	          0.44247353	         -0.10067295	          1.43024588	          0.44365367	         -0.44767877	          1.43179333	          0.43325162	         -0.21628092	          1.43035209	          0.44131330	         -0.32413644	          1.39587450	          0.06905130	         -0.08901162	          1.38290167	          0.07217609	         -0.46181405	          1.42921472	          0.06864750	         -0.15661763	          1.40277183	          0.07539867	         -0.39417267	          1.37602293	          0.03353249	         -0.15731974	          1.34598458	          0.04809221	         -0.41184711	          1.50044119	          1.32214892	         -0.27064091	          1.54468858	          1.25543869	         -0.27410710	          1.37821901	          1.37934399	         -0.26118514	          1.50681090	          1.32795346	         -0.21914847	          1.50061941	          1.32326686	         -0.32390302	          1.50840425	          0.04097942	         -0.06724183	          1.50094366	          0.04377133	         -0.45743439	          1.58650756	          0.57641947	         -0.18182801	          1.46127284	          0.58274245	         -0.51952648	          1.51740944	          0.63178593	         -0.13486755	          1.40086377	          0.62674600	         -0.45555946	          1.50557351	          0.54461539	         -0.12607108	          1.40891635	          0.54004318	         -0.45114061	          1.38267136	          0.15161955	         -0.02828186	          1.49362278	          0.18818331	         -0.40590200	          1.39009500	          0.15760852	         -0.07171567	          1.45173860	          0.18781072	         -0.41343659	
          1.31666672	          1.51152444	          0.88150132	         -0.27017951	         -7.31538963	          1.20925796	          1.31636345	          8.77825546	         -6.85748959	          0.40789574	         -3.55372620	          1.33123040	          0.00000000	          0.00000000	          9.45853615	         -4.68241549	          5.48445988	         -6.28035927	          0.94192523	          0.00000000	          0.00000000	          5.98511410	         -4.25144148	          2.56465316	          1.42479968	          0.82173705	         -0.26525316	          1.41903031	          0.81019276	         -0.19472198	          1.41179705	          0.81448877	         -0.34661680	          1.42920589	          0.43696353	         -0.16035353	          1.42551959	          0.43697691	         -0.38824829	          1.41617596	          0.06500960	         -0.12553482	          1.39758813	          0.06738033	         -0.42282027	          1.51152444	          0.88150132	         -0.27017951	          1.51324821	          0.87827575	         -0.15298301	          1.50980067	          0.88472694	         -0.38737601	          1.31951535	          0.95066780	         -0.23284271	          1.31673324	          0.94746619	         -0.28780699	          1.43032539	          0.44249460	         -0.10061950	          1.43019176	          0.44370154	         -0.44768688	          1.43165743	          0.43336996	         -0.21628048	          1.43038189	          0.44137889	         -0.32399762	          1.39585924	          0.06914055	         -0.08900856	          1.38281679	          0.07214719	         -0.46184698	          1.42950284	          0.06864855	         -0.15647532	          1.40432000	          0.07410271	         -0.39466968	          1.37601817	          0.03352353	         -0.15731896	          1.34532309	          0.04855212	         -0.41174778	          1.50040174	          1.32217681	         -0.27054992	          1.54464304	          1.25546169	         -0.27400097	          1.37810278	          1.37940550	         -0.26123640	          1.50686157	          1.32805324	         -0.21897373	          1.50048721	          1.32322049	         -0.32391545	          1.50837314	          0.04104157	         -0.06727168	          1.50096595	          0.04374239	         -0.45743999	          1.58648622	          0.57652080	         -0.18180433	          1.46113408	          0.58281684	         -0.51960021	          1.51750076	          0.63183033	         -0.13487004	          1.40088916	          0.62674499	         -0.45554739	          1.50556326	          0.54462749	         -0.12607048	          1.40885174	          0.53999132	         -0.45105779	          1.38256311	          0.15165183	         -0.02828171	          1.49357736	          0.18836269	         -0.40597761	          1.39020061	          0.15760049	         -0.07171242	          1.45097005	          0.18771218	         -0.41247770	
